<svg xmlns="http://www.w3.org/2000/svg" viewBox="0 0 48 48"><g fill='#FFFFFF'><path d="M24 7.5l1.3 1.3c.8.8 1.8 1.2 2.8 1.2H30v1.9c0 1.1.4 2.1 1.2 2.8l1.3 1.3-1.3 1.3c-.8.8-1.2 1.8-1.2 2.8V22h-1.9c-1.1 0-2.1.4-2.8 1.2L24 24.5l-1.3-1.3c-.8-.8-1.8-1.2-2.8-1.2H18v-1.9c0-1.1-.4-2.1-1.2-2.8L15.5 16l1.3-1.3c.8-.8 1.2-1.8 1.2-2.8V10h1.9c1.1 0 2.1-.4 2.8-1.2L24 7.5m0-2c-.5 0-1 .2-1.4.6l-1.3 1.3c-.4.4-.9.6-1.4.6H18c-1.1 0-2 .9-2 2v1.9c0 .5-.2 1-.6 1.4l-1.3 1.3c-.8.8-.8 2 0 2.8l1.3 1.3c.4.4.6.9.6 1.4V22c0 1.1.9 2 2 2h1.9c.5 0 1 .2 1.4.6l1.3 1.3c.4.4.9.6 1.4.6s1-.2 1.4-.6l1.3-1.3c.4-.4.9-.6 1.4-.6H30c1.1 0 2-.9 2-2v-1.9c0-.5.2-1 .6-1.4l1.3-1.3c.8-.8.8-2 0-2.8l-1.3-1.3c-.4-.4-.6-.9-.6-1.4V10c0-1.1-.9-2-2-2h-1.9c-.5 0-1-.2-1.4-.6l-1.3-1.3c-.4-.4-.9-.6-1.4-.6z"></path><path fill='#FF00A7' d="M21.3 26.6c-.4-.4-.9-.6-1.4-.6H17l-4 15 5-3 4 4 1-14-1.7-1.4zM31 26h-2.9c-.5 0-1 .2-1.4.6L25 28l1 14 4-4 5 3-4-15z"></path></g></svg>