<svg xmlns="http://www.w3.org/2000/svg" viewBox="0 0 48 48"><g fill='#FFFFFF'><path d="M28.9 8c.5 0 1 .3 1.1.8.1.4-.1.7-.2.8-.2.3-.5.4-.8.4h-2v13.6l.3.5 9.8 14.3c.3.4.1.9.1 1s-.3.6-.9.6H11.7c-.5 0-.8-.4-.9-.5s-.2-.6.1-1l9.8-14.3.3-.5V10h-2c-.3 0-.6-.1-.8-.4-.1-.2-.3-.4-.2-.8.1-.5.6-.8 1.1-.8h9.8m0-2h-9.7c-1.5 0-2.8 1-3.1 2.4-.4 1.9 1.1 3.6 2.9 3.6v11L9.2 37.3c-1.4 2 .1 4.7 2.5 4.7h24.6c2.4 0 3.8-2.7 2.5-4.7L29 23V12c1.8 0 3.3-1.7 2.9-3.6-.2-1.4-1.6-2.4-3-2.4z"></path><g fill='#FF00A7'><path d="M33.1 35.7L28 28h-8l-5.1 7.7c-.7 1 0 2.3 1.2 2.3h15.8c1.2 0 1.9-1.3 1.2-2.3zM21 33c-.6 0-1-.4-1-1s.4-1 1-1 1 .4 1 1-.4 1-1 1zm2-3c0-.6.4-1 1-1s1 .4 1 1-.4 1-1 1-1-.4-1-1zm2 5c-.6 0-1-.4-1-1s.4-1 1-1 1 .4 1 1-.4 1-1 1z"></path><circle cx="26" cy="26" r="1"></circle><circle cx="23" cy="25" r="1"></circle></g></g></svg>